<?xml version="1.0" encoding="UTF-8" standalone="no"?>
<!-- Created with Inkscape (http://www.inkscape.org/) -->

<svg
   width="159.94897mm"
   height="93.241165mm"
   viewBox="0 0 159.94897 93.241165"
   version="1.1"
   id="svg1"
   xmlns="http://www.w3.org/2000/svg"
   xmlns:svg="http://www.w3.org/2000/svg">
  <defs
     id="defs1">
    <rect
       x="229.7048"
       y="673.2229"
       width="378.50729"
       height="170.47273"
       id="rect2" />
  </defs>
  <g
     id="layer1"
     transform="translate(-18.65576,-99.448919)">
    <g
       transform="matrix(9.1005407,0,0,9.1438433,-2933.8852,-4010.736)"
       id="layer1-0"
       style="fill:#000000;fill-opacity:1">
      <path
         style="fill:#000000;fill-opacity:1;fill-rule:evenodd"
         id="path3013"
         d="m 325.72111,454.07296 c 0.92126,-0.45986 1.19763,1.07891 0.58819,1.47687 -0.54922,0.35727 -1.12146,-0.27769 -0.90178,-1.08422 0.0691,-0.25292 0.15945,-0.31483 0.31359,-0.39088 z m 0.85837,-0.61816 c -0.37913,-0.40857 -1.07806,-0.3953 -1.54046,-0.0486 -0.7937,0.59782 -0.82205,2.2038 0.0213,2.82285 0.58642,0.42979 1.06381,0.22773 1.58467,-0.0623 l 0.005,0.25866 0.8628,-0.009 -0.007,-3.21019 -0.85571,0.007 c -0.023,0.0495 -0.0124,0.22818 -0.0248,0.25825 -0.0744,0.15919 0.0425,0.038 -0.0452,-0.0168 z"
         class="fil1" />
      <path
         d="m 326.59126,453.54095 c 0.004,-0.002 0.008,0.004 0.0118,0.003 0.002,0 0.003,-0.002 0.005,-0.003 0.003,-0.001 0.005,0 0.008,0 0.007,10e-4 0.008,0.003 0.004,0.0113 -7e-4,10e-4 -0.008,10e-4 -0.009,10e-4 -0.006,0 -0.002,0.001 -0.006,-0.004 -6e-4,-10e-4 -0.002,-10e-4 -0.002,-10e-4 -5e-4,-0.002 0.002,-0.005 0.003,-0.006 7e-4,-0.002 8e-4,-0.004 0.002,-0.005 0.002,-0.002 0.0115,-10e-4 0.0139,0 0,0 -10e-4,0.0104 -10e-4,0.0104 v 0 c -0.003,0 -0.003,-10e-4 -0.007,0 -0.001,5e-5 -0.002,0.001 -0.003,0 -0.002,-10e-4 -0.003,-0.002 -0.004,-0.003 -0.002,0 -0.004,0 -0.003,0.001 4e-4,0 9e-4,-0.001 0.001,0 4e-4,5e-5 4e-4,10e-4 7e-4,10e-4 9e-4,-10e-4 10e-4,-0.002 0.002,-0.003 5e-4,0 10e-4,10e-5 0.002,0 0.006,0 -7e-4,10e-5 0.005,0 3e-4,-3e-5 9e-4,0 9e-4,-5e-5 5e-4,0.0126 -0.003,0.006 0.002,0.009 4e-4,0 -8e-4,0 -0.001,0 -0.003,0 -0.005,0.001 -0.008,0 -0.002,-10e-4 -0.003,-0.003 -0.005,-0.003 -0.004,-10e-4 -0.008,0.005 -0.0118,0.003 0,0 0,-0.0105 0,-0.0105 z"
         id="path3029"
         style="color:#000000;display:inline;overflow:visible;visibility:visible;fill:#000000;fill-opacity:1;fill-rule:nonzero;stroke:#273386;stroke-width:0.0249792;stroke-linecap:butt;stroke-linejoin:miter;stroke-miterlimit:4;stroke-dasharray:none;stroke-dashoffset:0;stroke-opacity:1;marker:none;enable-background:accumulate" />
      <path
         d="m 326.59955,453.51987 c 10e-4,0 0.002,10e-4 0.003,0.002 5e-4,1e-4 0.008,1e-4 0.008,1e-4 0.004,10e-6 0.008,0 0.0117,0 0.004,4e-5 0.006,-0.001 0.002,0.007 -1e-4,0 -0.006,0 -0.008,0 -0.004,0.002 -0.007,-0.005 -0.011,-0.005 -0.001,10e-5 -0.002,10e-4 -0.003,10e-4 -0.001,0 -0.002,10e-4 -0.004,10e-4 -0.005,-0.004 -0.008,-0.0113 -0.002,-0.0158 10e-4,-0.001 0.003,-0.001 0.004,-0.002 10e-4,-1e-5 0.003,-0.001 0.004,-5e-5 0.001,10e-4 0.004,0.006 0.007,0.004 0.005,-0.003 0.001,-0.006 0.008,-0.004 0.009,0.004 -0.002,0.0124 -0.006,0.0101 -10e-4,-10e-4 -0.002,-0.003 -0.003,-0.004 -0.003,-0.002 -0.007,0.004 -0.008,0.005 -0.007,0 -0.014,-0.006 -0.008,-0.0132 8e-4,-10e-4 0.002,-10e-4 0.003,-0.002 9e-4,0 0.007,-0.002 0.008,-0.002 0.002,10e-4 0.002,0.005 0.005,0.004 0.002,0 0.002,-0.004 0.003,-0.005 7e-4,0 0.007,0 0.008,0 0.009,0 0.0172,0.0106 0.004,0.0142 -0.002,0 -0.0118,10e-4 -0.0125,-10e-4 -0.005,-0.0101 10e-4,-0.003 -8e-4,-0.005 1e-4,-0.002 -7e-4,-0.004 4e-4,-0.005 9e-4,-10e-4 0.0124,0.001 0.014,0.001 0,0 -0.002,0.0103 -0.002,0.0103 v 0 c -10e-4,0 -0.009,-10e-4 -0.01,-0.002 -9e-4,-0.001 -10e-4,-0.003 -0.002,-0.005 0.001,0.002 -8e-4,-10e-4 0.002,-0.004 6e-4,-0.001 0.007,10e-4 0.009,0 0.003,5e-5 -0.001,0 -0.001,0.005 1e-5,10e-4 0.001,0.002 0.002,0.003 5e-5,1e-4 3e-4,2e-5 3e-4,-3e-5 -10e-4,-0.001 -0.002,-0.001 -0.003,-0.001 -5e-4,-5e-5 -0.006,-10e-4 -0.006,-10e-4 -0.002,-10e-4 -0.002,-0.005 -0.004,-0.005 -0.002,0 -10e-4,0.004 -0.003,0.006 -0.001,0.001 -0.003,-5e-5 -0.004,0.001 -0.002,0 0.002,-0.005 -0.003,-0.005 -1e-4,-2e-5 10e-5,0 10e-5,0 6e-4,0 0.001,0 0.002,0 0.001,10e-4 0.006,0.007 0.008,0.005 0.001,-0.001 0.001,-0.003 0.002,-0.005 0.002,-0.002 0.0167,0 0.002,0.009 0.001,0 -10e-5,5e-5 -7e-4,-10e-4 -10e-4,-0.002 -10e-4,-0.004 -0.002,-0.005 -0.003,-0.003 -0.005,0.004 -0.006,0.005 -5e-4,10e-4 -0.002,10e-4 -0.002,10e-4 -2e-4,-4e-5 -6e-4,1e-4 -8e-4,-10e-5 -5e-5,0 -9e-4,-0.005 2e-4,-10e-4 -10e-5,0.004 5e-4,0.009 0.006,0.007 10e-4,0 0.002,-0.002 0.003,-0.002 10e-4,0 0.002,0 0.003,0 0.002,0 0.008,0 0.008,0 0.004,0.008 0.002,0.007 -0.002,0.007 -0.004,0 -0.008,-1e-5 -0.0117,0 -2e-4,0 -0.008,10e-6 -0.008,10e-5 -0.001,0 -0.002,10e-4 -0.003,0.002 0,0 0,-0.01 0,-0.01 z"
         id="path3031"
         style="color:#000000;display:inline;overflow:visible;visibility:visible;fill:#000000;fill-opacity:1;fill-rule:nonzero;stroke:#273386;stroke-width:0.0249792;stroke-linecap:butt;stroke-linejoin:miter;stroke-miterlimit:4;stroke-dasharray:none;stroke-dashoffset:0;stroke-opacity:1;marker:none;enable-background:accumulate" />
      <path
         style="fill:#000000;fill-opacity:1;fill-rule:evenodd"
         id="path3009"
         d="m 328.80742,456.41826 c 0.0638,-0.55537 -0.28524,-2.66543 0.56339,-2.43196 0.66437,0.18394 -0.0301,1.85183 0.53149,2.43904 l 0.9,-0.0177 c -0.29941,-0.58544 -0.225,-0.51823 -0.22677,-1.26993 0,-0.43863 -0.0815,-1.15849 0.45177,-1.15849 0.84863,0 -0.0159,1.8642 0.68741,2.44434 l 0.90531,-0.009 c -0.58464,-0.61905 -0.0939,-1.66965 -0.35256,-2.57346 -0.0974,-0.33959 -0.38976,-0.64204 -0.81673,-0.68449 -0.58819,-0.0584 -0.72815,0.13619 -1.04882,0.4015 -0.20906,-0.15918 -0.3065,-0.37673 -0.75473,-0.40327 -0.40925,-0.0248 -0.68795,0.10533 -0.87752,0.32111 l -0.007,-0.21975 c -0.004,-0.023 -0.0103,-0.0322 -0.0209,-0.0481 l -0.83075,0.0122 0.0213,3.20665 0.8752,-0.007 z"
         class="fil1" />
      <path
         style="fill:#000000;fill-opacity:1;fill-rule:evenodd"
         id="path3011"
         d="m 334.03902,454.08177 c 0.93189,-0.50762 1.17815,1.17442 0.54567,1.49278 -0.46949,0.23524 -0.79016,-0.13796 -0.88405,-0.47578 -0.0957,-0.34136 -0.0372,-0.81183 0.33838,-1.017 z m -0.36922,2.12724 c 0.41601,0.33138 1.21607,0.34363 1.63064,-0.0437 0.86634,-0.8136 0.69803,-2.26924 -0.10984,-2.81047 -0.61654,-0.4121 -1.05414,-0.14857 -1.48996,0.1132 l -0.007,-1.40081 -0.90709,0.0159 0.023,4.34393 0.83751,0.005 c 0.0231,-0.2243 3e-4,0.002 3e-5,0.003 z"
         class="fil1" />
      <path
         id="path3015"
         d="m 337.01545,454.4798 c 0.13996,-0.77469 0.96909,-0.76054 1.07539,0.002 z m 1.83543,0.91088 c -0.5935,0.21401 -1.60335,0.62789 -1.8372,-0.24054 l 1.98248,-0.0371 c 0.039,-0.91441 -0.23563,-1.61305 -0.88229,-1.87482 -1.7061,-0.68979 -2.75492,1.80231 -1.48996,2.86176 0.5315,0.44571 1.55906,0.53061 2.11536,0.0601 0.0886,-0.18217 0.1063,-0.50054 0.10984,-0.76938 z"
         class="fil1"
         style="fill:#000000;fill-opacity:1;fill-rule:evenodd" />
      <path
         id="path3017"
         d="m 342.00977,453.20987 -0.9567,0.0177 -0.61476,2.08176 -0.59528,-2.10122 -0.94606,0.002 c 0.0301,0.27415 0.93189,2.97849 1.06653,3.21373 l 0.99567,0.005 1.05237,-3.21727 z"
         class="fil1"
         style="fill:#000000;fill-opacity:1;fill-rule:evenodd" />
    </g>
    <path
       style="fill:#000000;fill-opacity:1;stroke-width:0.526433"
       d="m 142.93018,106.62112 c -0.007,-6e-5 -0.011,5.5e-4 -0.011,0.002 -0.20942,0.22504 -5.28572,8.09033 -5.24592,8.1281 0.0284,0.027 0.44425,0.174 0.92403,0.32678 0.47977,0.15272 0.91948,0.29278 0.97713,0.3112 0.0775,0.0247 0.22692,-0.16811 0.57319,-0.73997 0.25759,-0.42541 0.48948,-0.78703 0.51523,-0.80352 0.0429,-0.0273 2.62885,0.78804 2.67972,0.84499 0.0128,0.0133 -0.005,0.44505 -0.0341,0.9588 -0.031,0.51374 -0.0496,0.93978 -0.0414,0.94677 0.009,0.008 0.47997,0.16564 1.0486,0.35254 0.56865,0.18691 1.06718,0.34135 1.10786,0.34323 0.0918,0.004 0.12089,-0.65691 0.25708,-5.81596 0.0575,-2.18141 0.0786,-3.9338 0.0476,-3.96452 -0.0971,-0.0959 -2.59696,-0.88869 -2.79722,-0.89074 z m 0.75277,2.32408 c 0.0146,0.0152 -0.0227,0.86784 -0.0839,1.89415 -0.0612,1.02632 -0.12859,1.88508 -0.14984,1.90841 -0.0511,0.0558 -1.74969,-0.49486 -1.75057,-0.56775 0,-0.0832 1.95254,-3.26782 1.98437,-3.23481 z"
       id="path3381" />
    <path
       style="fill:#000000;fill-opacity:1;stroke-width:0.526433"
       d="m 55.109637,116.02633 c -1.57697,-0.22025 -2.889077,-1.47161 -3.482067,-3.32093 -0.337304,-1.05187 -0.407604,-1.87891 -0.237899,-2.79887 0.371539,-2.01358 2.114257,-3.45014 4.528159,-3.7327 0.996509,-0.11664 0.972935,-0.12253 1.119946,0.28265 0.07015,0.19349 0.200478,0.55154 0.289443,0.79565 l 0.161738,0.44386 -0.664956,0.0777 c -1.596679,0.18635 -2.562324,0.70256 -2.983318,1.59492 -0.504482,1.06941 -0.09781,2.95261 0.853217,3.95129 0.343513,0.36071 0.453671,0.43226 0.865159,0.56187 0.575972,0.18141 1.078806,0.155 1.8463,-0.0974 0.609272,-0.20029 1.172277,-0.53989 1.707092,-1.02975 l 0.385331,-0.35291 0.04286,0.23703 c 0.14452,0.7986 -0.164668,1.72086 -0.765552,2.28385 -0.81966,0.76794 -2.483286,1.26891 -3.665582,1.1038 z"
       id="path3377" />
    <path
       style="fill:#000000;fill-opacity:1;stroke-width:0.526433"
       d="m 133.93218,113.68692 c -0.52168,-0.13449 -0.96434,-0.26117 -0.98368,-0.28167 -0.0335,-0.0359 2.05417,-9.09121 2.10944,-9.14856 0.0309,-0.0321 2.03965,0.47248 2.09029,0.52506 0.0183,0.019 -0.4442,2.08094 -1.02783,4.58217 -0.75055,3.21688 -1.08723,4.55059 -1.1504,4.55756 -0.0491,0.006 -0.51615,-0.10011 -1.03782,-0.23456 z"
       id="path3375" />
    <path
       style="fill:#000000;fill-opacity:1;stroke-width:0.526433"
       d="m 62.454448,109.24736 c -0.596542,-2.51005 -1.073476,-4.57531 -1.05983,-4.58947 0.06869,-0.0714 6.345518,-1.63144 6.385211,-1.58707 0.08719,0.0973 0.398574,1.63734 0.342177,1.69172 -0.03096,0.0296 -0.979255,0.28672 -2.107627,0.57115 -1.495404,0.37691 -2.05165,0.54293 -2.05165,0.6123 0,0.0923 0.391651,1.7798 0.422661,1.821 0.0092,0.0114 0.723772,-0.15918 1.589535,-0.37883 0.865782,-0.21964 1.629813,-0.40981 1.697952,-0.42261 0.108436,-0.0203 0.149648,0.083 0.331883,0.83197 0.114297,0.47035 0.18423,0.8704 0.155143,0.88898 -0.02894,0.019 -0.772311,0.21577 -1.651793,0.43817 -0.879465,0.2224 -1.618897,0.41711 -1.643203,0.43269 -0.03517,0.0224 0.358661,1.89991 0.408959,1.94946 0.0073,0.008 0.987571,-0.23533 2.178128,-0.53921 1.190631,-0.30387 2.172926,-0.54637 2.18289,-0.53888 0.0092,0.008 0.08609,0.40897 0.169065,0.89217 0.136643,0.79557 0.141039,0.88149 0.04652,0.90958 -0.316624,0.094 -6.190631,1.58063 -6.245691,1.58063 -0.03627,0 -0.55381,-2.05369 -1.150352,-4.56375 z"
       id="path3373" />
    <path
       style="fill:#000000;fill-opacity:1;stroke-width:0.526433"
       d="m 128.71247,112.4658 c -0.19395,-0.0357 -0.50179,-0.13563 -0.68406,-0.22221 -0.7171,-0.34048 -1.03679,-0.89395 -1.53815,-2.66331 -0.37423,-1.32071 -0.50465,-1.68085 -0.78065,-2.15616 l -0.22136,-0.38128 h 0.44019 c 1.13132,0 1.81198,-0.61464 1.81198,-1.63615 0,-0.47989 -0.22043,-0.82335 -0.68437,-1.06625 -0.24514,-0.12841 -1.46394,-0.38873 -1.52318,-0.32545 -0.0238,0.0253 -0.3358,1.70146 -0.69384,3.72505 -0.35804,2.02361 -0.66474,3.69354 -0.68153,3.71099 -0.0346,0.0359 -1.88565,-0.30347 -2.04487,-0.3748 -0.0905,-0.0406 -0.005,-0.60026 0.7138,-4.65079 0.44922,-2.53254 0.82994,-4.61595 0.84608,-4.62976 0.063,-0.0539 3.80799,0.69713 4.31381,0.86526 0.87736,0.29158 1.54396,0.82283 1.89988,1.51408 0.12986,0.25217 0.14818,0.38334 0.14818,1.05848 0,0.69357 -0.0165,0.80751 -0.16961,1.13921 -0.36916,0.80198 -1.06553,1.31969 -1.88442,1.40093 l -0.40145,0.0399 0.20616,0.15254 c 0.31642,0.23404 0.76119,0.98521 1.20964,2.04266 0.56284,1.32734 0.87792,1.82148 1.35997,2.13301 l 0.19106,0.12347 -0.25455,0.11036 c -0.30865,0.13373 -1.09752,0.17894 -1.57869,0.0904 z"
       id="path3371" />
    <path
       style="fill:#000000;fill-opacity:1;stroke-width:0.526433"
       d="m 73.623393,111.37501 c -0.03315,-0.11055 -1.516341,-8.89035 -1.535262,-9.0865 -0.01649,-0.16356 -0.01099,-0.1647 1.890352,-0.51697 2.207856,-0.40883 2.976192,-0.45569 3.695311,-0.22533 0.837958,0.26841 1.361984,0.79915 1.611295,1.63192 0.360109,1.20294 -0.08499,2.43268 -1.074667,2.96895 -0.363205,0.1968 -0.441784,0.29217 -0.241764,0.29327 0.274075,0.002 0.881333,0.4812 1.825419,1.44206 1.049499,1.06807 1.466244,1.39689 1.922406,1.51667 0.151114,0.0397 0.274588,0.0973 0.274588,0.12803 0,0.0775 -0.49558,0.41422 -0.807717,0.54887 -0.455577,0.19652 -0.827408,0.27123 -1.356966,0.27264 -0.932199,0.002 -1.300623,-0.29107 -2.598041,-2.0696 -0.740678,-1.01539 -1.08584,-1.40917 -1.537497,-1.75398 -0.106604,-0.0815 -0.158624,-0.14893 -0.115579,-0.15007 0.239199,-0.006 0.830375,-0.31711 1.123261,-0.59019 0.401359,-0.37426 0.511205,-0.61917 0.509355,-1.13536 -0.0055,-0.92412 -0.549102,-1.42819 -1.446572,-1.33621 -0.800574,0.0821 -1.201364,0.18445 -1.201364,0.30714 0,0.0631 0.276254,1.7303 0.61387,3.7049 0.337671,1.97462 0.61387,3.62001 0.61387,3.65642 0,0.0365 -0.283489,0.11853 -0.630007,0.18255 -0.3465,0.064 -0.828342,0.15481 -1.070784,0.20206 -0.328311,0.0638 -0.446546,0.0661 -0.463599,0.009 z"
       id="path3369" />
    <path
       style="fill:#000000;fill-opacity:1;stroke-width:0.526433"
       d="m 114.55442,100.43597 c -0.0789,-0.0222 -0.50649,0.96088 -1.95843,4.50283 -1.02162,2.49214 -1.84449,4.54455 -1.82868,4.56092 0.0511,0.0534 2.07758,0.27519 2.11926,0.23203 0.0222,-0.023 0.18206,-0.42635 0.35518,-0.89629 0.21355,-0.57973 0.34595,-0.8533 0.41185,-0.85095 0.28236,0.01 2.65041,0.31015 2.67858,0.33936 0.0183,0.019 0.0898,0.43496 0.15917,0.92456 0.0692,0.48961 0.14178,0.90649 0.16101,0.92634 0.019,0.02 0.46451,0.0885 0.98973,0.15273 1.213,0.14816 1.31039,0.15196 1.31044,0.0492 0,-0.0866 -1.46403,-9.22305 -1.51764,-9.47085 -0.0278,-0.12955 -0.12547,-0.14969 -1.40479,-0.29037 -0.75606,-0.0832 -1.42014,-0.16393 -1.4756,-0.17951 z m 1.0892,2.1177 c 0.009,-1.4e-4 0.011,0.0237 0.011,0.0714 0,0.0581 0.10367,0.90883 0.22819,1.89058 0.12437,0.98176 0.22615,1.81633 0.22615,1.85457 0,0.0382 -0.0654,0.0657 -0.14543,0.0614 -0.24911,-0.0133 -1.69206,-0.19969 -1.71186,-0.2202 -0.0216,-0.0226 1.25101,-3.42583 1.34085,-3.58517 0.0275,-0.0483 0.0423,-0.0724 0.0507,-0.0726 z"
       id="path3367" />
    <path
       style="fill:#000000;fill-opacity:1;stroke-width:0.526433"
       d="m 85.911148,109.5398 c -0.24409,-0.50008 -3.611512,-8.87043 -3.581216,-8.90183 0.01905,-0.0199 0.578867,-0.0994 1.243658,-0.17647 0.922491,-0.10694 1.219938,-0.12138 1.256169,-0.0604 0.02638,0.0439 0.597586,1.66204 1.269924,3.59603 0.799346,2.29943 1.237558,3.47551 1.266297,3.39833 0.02436,-0.065 0.265301,-1.75887 0.535804,-3.76438 0.270577,-2.0055 0.504134,-3.666884 0.519008,-3.69194 0.03517,-0.05946 2.219285,-0.300093 2.267678,-0.249907 0.03718,0.03875 -1.717331,9.522587 -1.78122,9.627337 -0.01868,0.031 -0.61594,0.12138 -1.326743,0.20074 -0.710785,0.0794 -1.356856,0.15862 -1.435691,0.1759 -0.107887,0.0238 -0.165585,-0.0133 -0.233668,-0.15348 z"
       id="path3363" />
    <path
       style="fill:#000000;fill-opacity:1;stroke-width:0.526433"
       d="m 105.01969,109.11907 c -0.60869,-0.24962 -0.99552,-0.78466 -1.08284,-1.49764 -0.0383,-0.31396 -0.0346,-0.32447 0.10532,-0.28313 0.95728,0.28305 1.12125,0.29534 1.50823,0.11302 0.47202,-0.2223 0.4725,-0.22563 0.62297,-4.22826 0.0727,-1.935 0.13536,-3.521157 0.13939,-3.524785 0.0357,-0.03343 2.1082,0.08586 2.14454,0.123472 0.085,0.08814 -0.2181,7.137263 -0.32712,7.608373 -0.18833,0.81359 -0.57929,1.36758 -1.14859,1.62757 -0.48692,0.2224 -1.49226,0.25377 -1.96176,0.0612 z"
       id="path3361" />
    <path
       style="fill:#000000;fill-opacity:1;stroke-width:0.526433"
       d="m 94.308298,108.43334 c -0.02015,-0.30406 -0.05403,-2.43004 -0.07583,-4.72437 l -0.0392,-4.171531 h 1.64269 c 0.903459,0 2.388881,-0.01995 3.300931,-0.04426 l 1.658191,-0.04426 v 0.915421 0.91542 h -0.926562 c -0.50961,0 -1.498261,0.0198 -2.197012,0.0441 l -1.270437,0.0441 v 0.84379 c 0,0.46408 0.01832,0.90972 0.03883,0.99028 l 0.03773,0.14646 1.738268,-0.0397 1.738212,-0.0397 v 0.91519 0.91519 h -1.347514 c -0.741136,0 -1.526214,0.0194 -1.744679,0.0431 l -0.397163,0.0431 v 1.00649 1.00646 l 2.261634,-0.0448 2.261623,-0.0448 v 0.89441 0.89439 l -1.405476,0.0441 c -0.772971,0.0243 -2.26788,0.0441 -3.322014,0.0443 l -1.916563,1.1e-4 -0.03627,-0.55287 z"
       id="path3355" />
    <text
       xml:space="preserve"
       style="font-size:25.4px;fill:#000000;fill-opacity:1;stroke-width:0.264583"
       x="55.424709"
       y="187.67953"
       id="text1"><tspan
         id="tspan1"
         style="font-style:normal;font-variant:normal;font-weight:bold;font-stretch:normal;font-size:25.4px;font-family:Arial;-inkscape-font-specification:'Arial Bold';fill:#000000;fill-opacity:1;stroke-width:0.264583"
         x="55.424709"
         y="187.67953">Capitali</tspan></text>
    <text
       xml:space="preserve"
       transform="scale(0.26458333)"
       id="text2"
       style="white-space:pre;shape-inside:url(#rect2);fill:#000000" />
  </g>
</svg>
